<svg width="1024" height="1024" viewBox="0 0 1024 1024" fill="none" xmlns="http://www.w3.org/2000/svg">
<path d="M1014.64 969.04L703.71 656.207C761.662 586.799 796.59 497.503 796.59 399.999C796.59 179.087 617.502 -0.000976562 396.59 -0.000976562C175.678 -0.000976562 -3.40991 179.087 -3.40991 399.999C-3.40991 620.911 175.678 799.999 396.59 799.999C496.958 799.999 588.638 762.943 658.878 701.855L969.374 1014.3C981.87 1026.8 1002.14 1026.8 1014.64 1014.3C1027.12 1001.81 1027.12 981.551 1014.64 969.04H1014.64ZM396.59 736.527C210.734 736.527 60.0621 585.855 60.0621 399.999C60.0621 214.143 210.734 63.471 396.59 63.471C582.446 63.471 733.118 214.143 733.118 399.999C733.118 585.855 582.446 736.527 396.59 736.527Z" fill="#F8F8F8"/>
</svg>
